/* XPM */
static char *b68e195c92a4499dcbea34e9ec1486530lUNAz4QYzvUO3Bt[] = {
/* columns rows colors chars-per-pixel */
"48 48 11 1 ",
"  c black",
". c #091520",
"X c #11273C",
"o c #2D363C",
"O c #1E4569",
"+ c #B8485C",
"@ c #D94E67",
"# c #FA617B",
"$ c #F27E93",
"% c #FFA3B1",
"& c #FBABB3",
/* pixels */
"%%%&%%&%%&%%%%%&%%%%%%%&&%%%%%%%%%&%%%%%%%%%%%&&",
"%%%&%%&%%&%%%%&&%%%%%&&%%%%%%%%%%%&%%%%%%&%%%%%&",
"%%%&%%&%%%&%%&&%%%%%&&%%%%%%%%%%%%&%%%%%&&%%%%%&",
"%%&%%%&%%%&%%&%%%%%%&%%%%%%%%  %%%&%%%%%&%%%%%%&",
"%%&%%%&%%%&%&&%  %%%&%%%%%%% ## %%&%%%%%&%%%%%%&",
"%%&%%%&%%%&%&% ++ %%&%%%%%% #### %&%%%%&%%%%%%%&",
"%%&%%%&%%&%%& +##+ %&  %%%% #### %&&%%%&&%%%%%%&",
"%%&%%%&%%&%&& +##+ % ## %%% ###$ %%&%%%%&%%%%%%&",
"%%&%%%&%&%%&% +##+  ##+ %%  ##$$ %%&%%%%&%%%%%&&",
"%%&%%%&&&%%&% +##+ ##+ %% ###### %%&%%%%&%%%%%&%",
"%&%%%%%&&%%&% +##+##+ %% ###### %%&&%%  &&%%%&%%",
"%&%%%%%&%%%&% +####+ %% ####$$ %%%&%% ## &%%%&%%",
"%&%%%%&&%%%&% +###+ %%% ###$$ %%%%&%% ## &%%&&%%",
"%&%%%%&&%%%&% +### %%%% ##$## %%%&%%% ## &%%&%%%",
"%&&%%&&%%%%&% +### %%%% ##### %%%&%%% ## &%%&%%%",
"%%&%%&%&%%%&% +### &%%% ##### %%%&%%% ## &%&%%%%",
"%%&%%&&&%%%&% +#$# &&%% ##### %%%&%% ####   %%&%",
"%%&&&%&%%  %% +#$# %&%% ##### %%&&% ####### %%&&",
"%%%&&%&% ++ % +#$# %&%% ####$ %%&% ####$$   %%%&",
"%%%&&%& +##+  +#$# %&%% ###$# %&& ###$$$ &%&%%%%",
"%%&&&&% +###+ +#$# %&%% ##$## %& ###$$$ &&%&%%%%",
"%%&%&&%% +###++### %&&% ##$## && ##$$$ %&%%&%%%%",
"%&%%&&&%% +####### %%&% ##### &% #### %%&%%&%%%%",
"&&%%%&&%%% +####$# %%%% ##### &% ####       %%%%",
"&%%%%&&%%%& +##$## %%% ###### &% ####$@@@$$# %%%",
"%%%%&%&%%%&% +##### % ####### &% #####$$$#### %%",
"%%%%&%&%%%&%% +##### ######## &% ############X%%",
"%%%%&%&&%%&%%% $$#############  #######$$$$#O%%%",
"%%%&%%%&%&&%%%&o+#####$###############$    X%%%%",
"%%%&%%%&%%&%%%&% ++##############$$$$$$ &%%&%%%%",
"%%&&%%%&%%&%%%&%% +####++++++++   X.    &%%&%%%%",
"%%&%%%%&%%&%%%&%%% +###+       %%%%%%%%&&%%&&%%%",
"%%&%%%%&&%&&%%&%%% +$##+ %&%%%%&&%%%%%&&%%%%&%%%",
"%%&%%%%%&%%&%%&%%% +###+ %&%%%%%&%%%%&&%%%%%&%%%",
"%%&%%%%%&%%&%%&%%% +###+ %&%%%%%&%%%%&%%%%%%&%%%",
"%%&%%%%%&%%&&%&%%% +$##+ %&%%%%%&%%%%&%%%%%%&%%%",
"%%%&%%%%&%%%&%&%%% +###+ %&%%%%%&%%%%&%%%%%%&%%%",
"%%%&%%%%&%%%&&&%%% +###+ %&%%%%%&%%%%&%%%%%%&%%%",
"%%%&%%%%&%%%%&&%%% +#$#+ %&%%%%%&%%%%&%%%%%%&%%%",
"%%%&%%%&&%%%%%&%%% +###+ %&%%%%%&%%%%&%%%%%%&%%%",
"%%%&%%%&%%%%%&&&%%% +++ %%&%%%%%&&%%%&%%%%%&&%%%",
"%%%&%%%&%%%%&&%&%%%%   %&%&%%%%%%&%%%%&%%%%&%%%%",
"%%%&%%%&%%%%&%%&&%%%%&%%%%&%%%%%%&%%%%&%%%&%%%%%",
"%%%&%%%&%%%%&%%%&%%%%&%%%%&%%%%%%&%%%%&%%%&%%%%%",
"%%%&&%%&%%%%&%%%&&%%%&%%%%&%%%%%%&%%%%&%%%&%%%%%",
"%%%%&%%&%%%%&%%%%&%%%&&%%%&&%%%%%&&%%%&%%%&%%%%%",
"%%%%&%%&%%%%&%%%%&%%%%&%%%%&%%%%%%&%%%%%%%&&%%%%",
"%%%%%%%%%%%%&%%%%%&%%%%%%%%%%%%%%%%%%%%%%%%%%%%%"
};
