/* XPM */
static char *_56c3dc6585e4ca5e04a0404e8cdd4ebMhfc1M2sOMeBEY5d[] = {
/* columns rows colors chars-per-pixel */
"48 48 122 2 ",
"   c None",
".  c #FF6383",
"X  c #FA6688",
"o  c #FA6789",
"O  c #FA6889",
"+  c #FA688A",
"@  c #FA698B",
"#  c #FA6B8B",
"$  c #FA6A8C",
"%  c #FA6B8C",
"&  c #FA6B8D",
"*  c #FA6C8C",
"=  c #FA6D8C",
"-  c #FA6C8D",
";  c #FA6D8D",
":  c #FA6E8D",
">  c #FA6F8D",
",  c #FA6C8E",
"<  c #FA6D8E",
"1  c #FA6D8F",
"2  c #FA6E8E",
"3  c #FA6F8E",
"4  c #FA6E8F",
"5  c #FA6F8F",
"6  c #FA7289",
"7  c #FA708F",
"8  c #FA6E90",
"9  c #FA7090",
"0  c #FA7190",
"q  c #FA7191",
"w  c #FA7192",
"e  c #FA7292",
"r  c #FA7293",
"t  c #FA7393",
"y  c #FA7492",
"u  c #FA7692",
"i  c #FA7792",
"p  c #FA7595",
"a  c #FA7890",
"s  c #FA7A97",
"d  c #FA7898",
"f  c #FA7C98",
"g  c #FA7F9C",
"h  c #FA8299",
"j  c #FA809B",
"k  c #FF839C",
"l  c #FF819F",
"z  c #FF839F",
"x  c #FA859E",
"c  c #FF849F",
"v  c #FF859F",
"b  c #FF869E",
"n  c #FF83A0",
"m  c #FF83A1",
"M  c #FF84A0",
"N  c #FF85A0",
"B  c #FF84A1",
"V  c #FF85A1",
"C  c #FF86A0",
"Z  c #FF87A0",
"A  c #FF84A2",
"S  c #FF85A2",
"D  c #FF85A3",
"F  c #FF86A2",
"G  c #FF87A2",
"H  c #FF86A3",
"J  c #FF87A3",
"K  c #FF86A4",
"L  c #FF87A4",
"P  c #FF87A5",
"I  c #FF89A3",
"U  c #FF88A4",
"Y  c #FF89A5",
"T  c #FF88A6",
"R  c #FF89A7",
"E  c #FFA3B1",
"W  c #FDA7B1",
"Q  c #FFA6B0",
"!  c #FDA7B2",
"~  c #FAA9B0",
"^  c #FBA8B3",
"/  c #FBABB3",
"(  c #FCA9B1",
")  c #FEA8B0",
"_  c #FFA9B0",
"`  c #FFB2B0",
"'  c #FFB2B1",
"]  c #FFB3C4",
"[  c #FFB5C4",
"{  c #FFB8C6",
"}  c #FFBBCA",
"|  c #FFC1C8",
" . c #FFC1CD",
".. c #FFC4CF",
"X. c #FFC6D0",
"o. c #FFC5D2",
"O. c #FFC7D4",
"+. c #FFC8D3",
"@. c #FFC8D5",
"#. c #FFCAD4",
"$. c #FFCAD5",
"%. c #FFCCD7",
"&. c #FFCBD8",
"*. c #FFCCDA",
"=. c #FFCDDA",
"-. c #FFCFDA",
";. c #FFCFDB",
":. c #FFD2DB",
">. c #FFD2DC",
",. c #FFD5DD",
"<. c #FFD5DE",
"1. c #FFD8E0",
"2. c #FFD8E1",
"3. c #FFD9E1",
"4. c #FFDAE2",
"5. c #FFDAE3",
"6. c #FFDBE3",
"7. c #FFDCE4",
"8. c #FFDCE5",
"9. c #FFDDE5",
"0. c #FFDFE7",
"q. c #FFE0E7",
/* pixels */
". ] E E E E E E E E E E E E E E E E E E E E E E E E E E E E E E E E E E E E E E E E E E E E E E ",
"] ] E E E E E E W E E E E E E E E E E E E E E E E E E E E E E E E E E E E E E E E E E E W E E E ",
"E E E E E E E E / E E E E E E E E E E E W E E E E E E E E E E E E E W E E E E E E E E E / E E E ",
"E E E W E E E E / E E E E E W E E E E E ( W E E E E E E E E E E E E / E E W E E E E E E / E E E ",
"E E E / E E E E / E E E E E / E E E E E E / E E E E W E E E E E E W ( E E / E E E E E E ( E E E ",
"E E E / E E E E / E E E E E ( W E E E E E / E E E E / E E E E E E ( E E E / E E E E E E / E E E ",
"E E E / E E E E / E E E E E E ( W E E E E / E E E E / E E E E E E / E E E ( E E E E E E / E E E ",
"E E E ( E E E E / W E E E E E E / E E E E / q.q.q.q.q.q.q.E E E W ( E E E / E E E E E E ( E E E ",
"E E E / E E E E ( / E E E E E E / E E q.q.q.& & & & & & & q.q.q.( E E E E ( E E E E E E / E E E ",
"E E E ( E E E E E / E E E E E E / q.q.& & & & & & & & & & & & & q.q.E E E W E E E E E E / E E E ",
"E E E W E E E E E / W E E E E E q.& & & & - - & & & & & & & & & & & q.E E / E E E E E E / E E E ",
"E E E / E E E E E ( / E E E q.q.& & & @ & - q.- & & & & & & & & & & & q.q.( E E E E E E / E E E ",
"E E E ( E E E E E E / E E q.& & & - - @ - - - - & & & & & & & & & & & & & q.W E E E E W ( E E E ",
"E E E / E E E E E E / E E q.& - - 7.7.,.- & & & & & & & & & & & & & & & & q./ E E E W ( E E E E ",
"E E E ( E E E E E E / E q.& & - ,.q.q.q.7.- & & & & K & & K & & & & & & & & q.E E E ( E E E E E ",
"E E E W W E E E E E / q.& & - 4.q.q.q.4.4.- & & & D K & & K & & & & & & & & & q.E W / E E E E E ",
"E E E E ( E E E E E ( q.& & 4.q.q.q.7.4.w & & & D - & & & - z & & & & & & & & q.E / ( E E E E E ",
"E E E E / E E E E E q.& @ - 7.q.7.4.-.w & & & & K K K K m c c & & & & & & & & & q./ E E E E E E ",
"E E E E ( W E E E E q.& & - :.q.7.4.p - & & & K & & & & - 7 D & & & & & & & & & q.( E E E E E E ",
"E E E E E ( E E E E q.& & - - >.&.w & & & & & & K K D D I $.- & & & & & & & & & q.E E E E E E E ",
"E E E E E W W E E q.& & - w w w w - & & & & & & & D & - D - & & & & & & & & & & & q.E E E E E E ",
"E E E E E E ( E E q.& & - -.-.- & & & & & & & & & - D D @ @ & & & & & & & & & & & q.W E E E E E ",
"E E E E E E W W E q.& & - $.-.- & & & & & & & & K D D - o o & & & & & & & & & & & q.( E E E E E ",
"E E E E E E E ( W q.& @ - - - - & & & & & & & K - & - D @ @ & & & & & & & & & & & q.W W E E E E ",
"E E E E E E E E W q.& & & & & & & & & & & & K D D K D m & & & & & & @ @ @ o @ & & q.E / E E E E ",
"E W E E E E E E E q.& & & & & & & & & @ @ & K - & & & - D & & & & @ @ @ o o o & & q.E ( W E E E ",
"E ( W E E E E E E q.& & & & & & & & & @ @ K K D D K T T T & & & & @ @ o o o o & & q.E E ( E E E ",
"E E / E E E E E E E q.& & & & & & & & @ @ & D @ @ & T O.- & & @ & & @ i  .@ @ & q./ E E W W E E ",
"E E ( E E E E E E E q.& & & & & & & @ @ & & D @ @ & T w - & & @ & - h { [ i & & q.( W E E ( E E ",
"E E W W E E E E E E q.& & & & & & & @ @ & @ @ D K K D & & & @ & 8 s | o.o.w & & q.E / E E W W E ",
"E E E ( E E E E E E E q.& & & & & & @ @ & @ @ - K & & & & & @ - x } $.%.d - & q.E E / E E E / E ",
"E E E W W E E E E E E q.& & & & & & @ @ & & z K K & & & & & - h +.+...d - & & q.E E / E E E / E ",
"E E E E ( E E E E E W ( q.& & & & & @ @ - z - & - K & & & & f +.+.+.g - & & q.E E E ( W E E / E ",
"E E E E / E E E E E / E E q.& & & & & & c c D D D D & & @ o i +.+.g - & & q.E E E E E / E E / E ",
"E E E E ( E E E E E / E E q.& & & & & & D - & & - D D @ o o 6 a w & & & & q.E E E E E ( E E / E ",
"E E E E W W E E E E / E E E q.q.& & @ @ D D D K K D - @ o o @ & & & & q.q.E E E E E E / E E / E ",
"E E E E E ( E E E E / E E E E E q.& & & D - & & K D & & & & & & & & q.E E E E E E E E ( E E / E ",
"E E E E E W W E E E / E E E E E E q.q.& & - & & K & & & & & & & q.q.( W E E E E E E W W E E / E ",
"E E E E E E / E E E / E E E E E E / E q.q.4.- & & & & & & q.q.q.E E E W W E E E E E / E E E / E ",
"E E E E E E ( W E E / E E E E E E / E E E E q.q.q.q.q.q.q.E E E E E E E ( W E E E E / E E E ( E ",
"E E E E E E E ( E W ( E E E E E E / E E E E E E E W E E E E E E E E E E E / E E E E   W E E W E ",
"E E E E E E E / E / E E E E E E W / E E E E E E E / E E E E E E E E E E E ( W E E E ( ( E E E E ",
"E E E E E E E / E ( E E E E E E / ( E E E E E E E / E E E E E E E E E E E E / W E E E W E E E E ",
"E E E E E E E / E W E E E E E E ( E E E E E E E E / E E E E E E E E E E E E ( ' W E E E E E E E ",
"E E E E E E E / E E E E E E E E W E E E E E E E E / E E E E E E E E E E E E E / ( E E E E E E E ",
"E E E E E E E ( E E E E E E E E E E E E E E E E / / E E E E E E E E E E E E E E E E E E E E E E ",
"E E E E E E E W E E E E E E E E E E E E E E E E ' ( E E E E E E E E E E E E E E E E E E E E E E ",
"E E E E E E E E E E E E E E E E E E E E E E E E ( E E E E E E E E E E E E E E E E E E E E E E E "
};
