/* XPM */
static char *fdfa00e5556d43d09390e6c0724c2b12PMTM61wsCYyqq40N[] = {
/* columns rows colors chars-per-pixel */
"48 48 54 1 ",
"  c #FF7D93",
". c #FF8196",
"X c #FF859A",
"o c #FF899D",
"O c #FF8DA1",
"+ c #FF92A5",
"@ c #FF96A9",
"# c #FF9BAD",
"$ c #FF9EB1",
"% c #FDA2AD",
"& c #FFA0AE",
"* c #FFA1AF",
"= c #FFA6AF",
"- c #FFAAAF",
"; c #FFB1AF",
": c #FFA3B1",
"> c #FBA5B0",
", c #FDA7B1",
"< c #FFA3B5",
"1 c #FFA4B6",
"2 c #FBABB3",
"3 c #FCA9B1",
"4 c #FFA8B7",
"5 c #FFA7B8",
"6 c #FFA8B8",
"7 c #FFACBA",
"8 c #FFABBD",
"9 c #FFAEBD",
"0 c #FFB2BD",
"q c #FFAFC0",
"w c #FFB2C0",
"e c #FFB3C3",
"r c #FFB4C1",
"t c #FEB7C5",
"y c #FEB8C5",
"u c #FEBBC9",
"i c #FDBCC9",
"p c #FEBFCC",
"a c #FCC0CC",
"s c #FEC0CE",
"d c #FEC4CF",
"f c #FDC6D0",
"g c #FECCD3",
"h c #FFD2D6",
"j c #FFDAD7",
"k c #FFD4D8",
"l c #FFDCD9",
"z c #FCEECD",
"x c #FBF1C5",
"c c #FCF0CA",
"v c #FEE4D6",
"b c #FDEBD4",
"n c #FEE3D9",
"m c #FEE9D8",
/* pixels */
"::::::::::::::::::*##@@@@@@##:::::::::::::::::::",
"::::::::,:::::::##@XXXXXXXXX@@#**:::::::::::,:::",
"::::::::2::::*#+XX....... .XXXX@#*,:::::::::2:::",
":::,::::2::##XXoXX.XXXXX.XXXXXXX..=::,::::::2:::",
":::2::::2::@ooXXXXoooooooooooXXX...#*2::::::3:::",
":::2::::2#.XXXooooOOO++++OOOOOoXX...X=::::::2:::",
":::2::::*XXXXooOO+++@@@@@@++++OOoooX..#:::::2:::",
":::3::*#XXXoooO++@@@#######@@@++OOooXX.#::::3:::",
":::2::#XXXooO++@@##$$$:$:$$###@@+++ooXXX#:::2:::",
":::3:#XXXoO++@@#$$$<<<1111<:$$##@@++ooXX.*::2:::",
":::,*XXooO++@###$<<111666511<:$$#@@++OoX..*:2:::",
":::>@XXXO++@##$:<1166668866411<$$##@++oo.X#*2:::",
"::*#oXooO+@##$:116689wwwww09611<:$##@++Oo.X*=:::",
"::#oXXoO+@##:<1146790rtttt0w96411::##@+OoX..*:::",
"::#X.XoO+@#$<116690wtuuuuutrw06611:$#@+OOX..#:::",
"::@XXoO++#$:114790ryupssspuyr09661<$##@+Oo..#*::",
":*.XXoO+@#$<16690ryisdfgffsitw09651<$#@+OOX.X#::",
":#..Xo+@#$:16690rtisdgggggdsiyww9611:#@@+oX.X#::",
":#..XO+@#$<1699ttisfghhkkhgfsitr0761<$#@+Oo..#::",
":. XoO+@#<1580ttusfghkllllkgdsutw9651$##@OoX..*:",
"*  Xo+@#$<169wtupdghjlvnnljhgdiutw961<$#@+oX..*:",
"*  Xo+@#$116wttisghllvvmmmvlhgsiurq65<$#@+oX..#:",
":  Xo+@#<568wtusfgklnbzzzmnlkgfsutw85<<$@+oX..#:",
":  Xo@##<568wtusghlnmbcxzbvnlhgsutq65<:#@+oX.X#*",
":  Xo@##1558wtusghlnmbcxxbmvlhgsutw865<$@OOX.X#:",
":  Xo+@#<569wtusghlnmbcczbvljhgsutw861:#@+oX..*:",
"*  Xo+@#<566wtusfgklnbbzbmvlkgfsut965<:#@+oX..*:",
":  Xo+##<556wttisghlnmmbmvljhgditw961<$#@+oX..*:",
":#  oO@#:1568wtupfgklnnnnnjhgdput0961<$#+OXX.#*:",
":#. XO+##<168qwtiifghlllllkggsitw0661:#@+OXXX#,:",
":#..Xo+@#:15690rtusdghkkkhgdsytr0761<$#@+oXXX#2:",
"::@..o+@#$<16690ryisfgggggdsitr9965<:$@+OoXX@*2:",
"::#X.XO+@#:156690wtisdfgfspitr99641<:#@+OXXX#*2:",
"::*.XXoO@#$:116690ryupsspiuyr09651<:##+OoX.o**2:",
":::#X.XO+@#::11669wrtyuuuytw096411:$#@+Oooo#::2:",
"::::*.Xo++@#$:116699wwwtrrww9611<:$#@++ooo@*::2:",
"::::*.XXO+@##::<16699wwwww99661<:$#@+OOXoo#,::2:",
":::::*XXXO+@@#$:11566878866611<:$#@++Oooo#,=::2:",
":::::**XXoO+@@#::<15166665151:$$#@@+OoXX@*2:::2:",
"::::::=#XXoO+@@##::<<11111<<$###@++OooX@#:2:::3:",
":::::::=#XXoO++@@###$:::::$$##@@++oooo##::2,::,:",
":::::::>**XXXoO+@@@###$#####@+++Ooooo***::33::::",
":::::::2*=*#XXoO+++@@@@@+@@@+OOOooX@#*2,:::,::::",
":::::::2:,:*#...oOO+++++O+O+Ooo..X#*::3;,:::::::",
":::::::2::::***#.ooOoooooooo   #***::::23:::::::",
":::::::3::::::::*##XXoXX..  ::::::::::::::::::::",
":::::::,::::::::::*#####-=::::::::::::::::::::::",
"::::::::::::::::::::::::=:::::::::::::::::::::::"
};
