/* XPM */
static char *_99e09e3f5e94ef7d3198692f6118b4ac9AvLYaVqtpRsDdb[] = {
/* columns rows colors chars-per-pixel */
"48 48 4 1 ",
"  c black",
". c magenta",
"X c #BBA2B7",
"o c #FFA3B1",
/* pixels */
"oooooooooooooooooooooooooooooooooooooooooooooooo",
"oooooooooooooooooooooooooooooooooooooooooooooooo",
"oooooooooooooooooooooooooooooooooooooooooooooooo",
"oooooooooooooooooooooooooooooooooooooooooooooooo",
"oooooooooooooooooooooooooooooooooooooooooooooooo",
"oooooooooooooooooooooooX ooooooooooooooooooooooo",
"ooooooooooooooooooooooo  ooooooooooooooooooooooo",
"ooooooooooooooooooooooo oooooooooooooooooooooooo",
"ooooooooooooooooooooooo  ooooooooooooooooooooooo",
"oooooooooooooooooooooooX  oooooooooooooooooooooo",
"ooooooooooooooooooooooooX  ooooooooooooooooooooo",
"ooooooooooooooooooooooooo  ooooooooooooooooooooo",
"ooooooooooooooooooooooooo  ooooooooooooooooooooo",
"oooooooooooooooooooooooo   ooooooooooooooooooooo",
"oooooooooooooooooooooooo  Xooooooooooooooooooooo",
"ooooooooooooooooooooooo  Xoooooooooooooooooooooo",
"ooooooooooooooooooooooo  ooooooooooooooooooooooo",
"ooooooooooooooooooooooo   oooooooooooooooooooooo",
"oooooooooooooooooooooooX   ooooooooooooooooooooo",
"ooooooooooooooooooooooooX   oooooooooooooooooooo",
"oooooooooooooooooooooooooX   ooooooooooooooooooo",
"ooooooooooooooooooooooooooX  ooooooooooooooooooo",
"ooooooooooooooooooooooooooX   oooooooooooooooooo",
"ooooooooooooooooooooooooooo   oooooooooooooooooo",
"ooooooooooooooooooooooooooo   oooooooooooooooooo",
"oooooooooooooooooooooooooo   Xoooooooooooooooooo",
"ooooooooooooooooooooooooo    Xoooooooooooooooooo",
"oooooooooooooooooooooooo    Xooooooooooooooooooo",
"oooooooooooooooooooooooo   Xoooooooooooooooooooo",
"ooooooooooooooooooooooo   Xooooooooooooooooooooo",
"ooooooooooooooooooooooo   oooooooooooooooooooooo",
"ooooooooooooooooooooo       oooooooooooooooooooo",
"oooooooooooooooooooo          oooooooooooooooooo",
"ooooooooooooooooooo            ooooooooooooooooo",
"ooooooooooooooooooo            ooooooooooooooooo",
"ooooooooooooooooooo            ooooooooooooooooo",
"ooooooooooooooooooo            ooooooooooooooooo",
"ooooooooooooooooooo            ooooooooooooooooo",
"ooooooooooooooooooo            ooooooooooooooooo",
"oooooooooooooooooooX  ..  ..  Xooooooooooooooooo",
"oooooooooooooooooooo  ..  ..  oooooooooooooooooo",
"ooooooooooooooooooooX        Xoooooooooooooooooo",
"oooooooooooooooooooooX      Xooooooooooooooooooo",
"ooooooooooooooooooooooX    Xoooooooooooooooooooo",
"oooooooooooooooooooooooX  Xooooooooooooooooooooo",
"ooooooooooooooooooooooooXXoooooooooooooooooooooo",
"oooooooooooooooooooooooooooooooooooooooooooooooo",
"oooooooooooooooooooooooooooooooooooooooooooooooo"
};
