/* XPM */
static char *_2e3c994d06b4c45fc2b43a3e056b02arGOa0p3GmIIKZItv[] = {
/* columns rows colors chars-per-pixel */
"48 48 4 1 ",
"  c black",
". c #FF05FF",
"X c #BBA2B7",
"o c #FFA3B1",
/* pixels */
"oooooooooooooooooooooooooooooooooooooooooooooooo",
"oooooooooooooooooooooooooooooooooooooooooooooooo",
"oooooooooooooooooooooooooooooooooooooooooooooooo",
"oooooooooooooooooooooooooooooooooooooooooooooooo",
"oooooooooooooooooooooooooooooooooooooooooooooooo",
"oooooooooooooooooooooooo ooooooooooooooooooooooo",
"oooooooooooooooooooooooo  oooooooooooooooooooooo",
"ooooooooooooooooooooooooX oooooooooooooooooooooo",
"oooooooooooooooooooooooo  oooooooooooooooooooooo",
"ooooooooooooooooooooooo  Xoooooooooooooooooooooo",
"oooooooooooooooooooooo  Xooooooooooooooooooooooo",
"oooooooooooooooooooooo  oooooooooooooooooooooooo",
"oooooooooooooooooooooo  oooooooooooooooooooooooo",
"ooooooooooooooooooooooX  ooooooooooooooooooooooo",
"ooooooooooooooooooooooX  ooooooooooooooooooooooo",
"oooooooooooooooooooooooX  oooooooooooooooooooooo",
"oooooooooooooooooooooooX  oooooooooooooooooooooo",
"ooooooooooooooooooooooo   oooooooooooooooooooooo",
"oooooooooooooooooooooo   Xoooooooooooooooooooooo",
"ooooooooooooooooooooo   Xooooooooooooooooooooooo",
"oooooooooooooooooooo   Xoooooooooooooooooooooooo",
"oooooooooooooooooooo  Xooooooooooooooooooooooooo",
"ooooooooooooooooooo   Xooooooooooooooooooooooooo",
"ooooooooooooooooooo   oooooooooooooooooooooooooo",
"ooooooooooooooooooo   oooooooooooooooooooooooooo",
"oooooooooooooooooooX   ooooooooooooooooooooooooo",
"oooooooooooooooooooX    oooooooooooooooooooooooo",
"ooooooooooooooooooooX    ooooooooooooooooooooooo",
"oooooooooooooooooooooX   ooooooooooooooooooooooo",
"ooooooooooooooooooooooX   oooooooooooooooooooooo",
"ooooooooooooooooooooooo   oooooooooooooooooooooo",
"ooooooooooooooooooooo       oooooooooooooooooooo",
"ooooooooooooooooooo          ooooooooooooooooooo",
"oooooooooooooooooo            oooooooooooooooooo",
"oooooooooooooooooo            oooooooooooooooooo",
"oooooooooooooooooo            oooooooooooooooooo",
"oooooooooooooooooo            oooooooooooooooooo",
"oooooooooooooooooo            oooooooooooooooooo",
"oooooooooooooooooo            oooooooooooooooooo",
"ooooooooooooooooooX  ..  ..  Xoooooooooooooooooo",
"ooooooooooooooooooo  ..  ..  ooooooooooooooooooo",
"oooooooooooooooooooX        Xooooooooooooooooooo",
"ooooooooooooooooooooX      Xoooooooooooooooooooo",
"oooooooooooooooooooooX    Xooooooooooooooooooooo",
"ooooooooooooooooooooooX  Xoooooooooooooooooooooo",
"oooooooooooooooooooooooXXooooooooooooooooooooooo",
"oooooooooooooooooooooooooooooooooooooooooooooooo",
"oooooooooooooooooooooooooooooooooooooooooooooooo"
};
