/* XPM */
static char *_02d4a0fc4004089f0329dbcf21e0cbaeSqrR1CuW2QnxAt4[] = {
/* columns rows colors chars-per-pixel */
"48 48 8 1 ",
"  c #FFA3B1",
". c #FDA7B1",
"X c #FBABB3",
"o c #FCA9B1",
"O c #F9AEB2",
"+ c #FAAFB6",
"@ c #FFB2B1",
"# c #FAB4B3",
/* pixels */
"                                                ",
"        .                                   .   ",
"        X           .             .         X   ",
"   .    X     .     o.            X  .      X   ",
"   X    X     X      X    .      .o  X      o   ",
"   X    X     o.     X    X      o   X      X   ",
"   X    X      o.    X    X      X   o      X   ",
"   o    X.      X    X    o     .o   X      o   ",
"   X    oX      X    X    X     o    o      X   ",
"   o     X      X    X    X    ..    .      X   ",
"   .     X.     X   .o    o    X     X      X   ",
"   X     oX     o  .o     X    X     o      X   ",
"   o      X    .. .X      X    o.    ..    .o   ",
"   X      X    X  Xo      X     o.    X   .o    ",
"   o      X    X  X       X.  .  o    o   o     ",
"   ..     X    X  X       oX  o. ..   X  .X     ",
"    o     o.   X  X        X   X  X   X  Xo     ",
"    X      X   X  X       .o   o. X   o  X      ",
"    o.     X   o. X       X     X o.  ...o      ",
"     o     X    o.X      .X     X  X   oO       ",
"     ..    X     .X      Xo     X  o    +.      ",
"      o    X      o.     X      X  X    X..     ",
"      ..   X       X     X      X  o   .X o     ",
"       o.  X       X     o     .o  .   oX ..    ",
"        .. X       o.    X     X   X    X  X    ",
" .       o.X        o    o.   .o   o    o. o.   ",
" o.       XO        ..    o  .X    X     X  o   ",
"  X       o#         o    X  Xo    o     X  ..  ",
"  o        +.        ..   o. X     .     o.  o  ",
"  ..       Xo.        o.   o.X     X      X  .. ",
"   o       X X.        X    XX     o      X   X ",
"   ..      X oX.       X    XX     X      X   X ",
"    o     .o  oX       o.   oX     X      o.  X ",
"    X     X    o.       o   Xo     X       X  X ",
"    o     X     X       X   X     .o       o  X ",
"    ..    X     X       o   X     X        X  X ",
"     o    X     o.      X   X     X        o  X ",
"     ..   X      o      o   o     o.      ..  X ",
"      X   X      X      ..  .      ..     X   X ",
"      o.  X      X       o          o.    X   o ",
"       o .o      X       .           X    X.  . ",
"       X X      .X       X           o.   oo    ",
"       X o      Xo       X            X.   .    ",
"       X .      o        X            o@.       ",
"       X        .        X             Xo       ",
"       o                XX                      ",
"       .                @o                      ",
"                        o                       "
};
